# xmcd
#
# Track frame offsets:
#	150
#	16647
#	34082
#	51240
#	69271
#	88762
#	106354
#	123080
#	138778
#	154872
#	170743
#	189224
#	205329
#	221724
#	234834
#	250509
#	264818
#	281183
#	293898
#
# Disc length: 4125 seconds
#
# Revision: 0
# Processed by: cddbd v1.5.2PL0 Copyright (c) Steve Scherf et al.
# Submitted via: EasyCDDAExtractor 5.0.5.1
#
DISCID=03101b13
DTITLE=Various Artist - HOTT COUNTRY # 128
DYEAR=1900
DGENRE=Country
TTITLE0=Trace Adkins - LADIES LOVE COUNTRY BOYS
TTITLE1=Carolyn Dawn Johnson - TAKING BACK MY BRAVE
TTITLE2=Jason McCoy - I'm Not Running Anymore
TTITLE3=Chris Cummings - Dixie Beauxderaunt
TTITLE4=Faith Hill - STEALING KISSES
TTITLE5=Jake Owen - STARTIN' WITH ME
TTITLE6=Kellie Pickler - RED HIGH HEELS
TTITLE7=Wreckers - My Oh My
TTITLE8=Billy Currington - GOOD DIRECTIONS
TTITLE9=Lisa Hewitt - SOMEBODY
TTITLE10=Pat Green - DIXIE LULLABYE
TTITLE11=Charlie Major and Kim Mitchel - Young At Heart
TTITLE12=Kenny Rogers - The Last Ten Years Superman
TTITLE13=George Strait - IT JUST COMES NATURAL
TTITLE14=Trent Willmon - SO AM I
TTITLE15=Jessica Robinson - LITTLE DIRT ROAD
TTITLE16=Lee Ann Womack - FINDING MY WAY BACK HOME
TTITLE17=Prairie Oyster - TOO BAD FOR ME
TTITLE18=Mashall Tucker Band - HEARD IT IN A LOVE SONG
EXTD=September 2006\n
EXTT0=
EXTT1=
EXTT2=
EXTT3=
EXTT4=
EXTT5=
EXTT6=
EXTT7=
EXTT8=
EXTT9=
EXTT10=
EXTT11=
EXTT12=
EXTT13=
EXTT14=
EXTT15=
EXTT16=
EXTT17=
EXTT18=
PLAYORDER=
